<mxfile host="app.diagrams.net" modified="2024-03-19T13:31:33.391Z" agent="Mozilla/5.0 (Windows NT 10.0; Win64; x64) AppleWebKit/537.36 (KHTML, like Gecko) Chrome/121.0.0.0 Safari/537.36 OPR/107.0.0.0 (Edition std-1)" etag="JfSpufNMKUxL9UgkNgGe" version="24.0.7" type="device">
  <diagram name="Página-1" id="OFBlBUaZOtvZqJ0gL_OV">
    <mxGraphModel dx="2489" dy="1550" grid="1" gridSize="10" guides="1" tooltips="1" connect="1" arrows="1" fold="1" page="1" pageScale="1" pageWidth="1169" pageHeight="827" math="0" shadow="0">
      <root>
        <mxCell id="0" />
        <mxCell id="1" parent="0" />
        <mxCell id="tm8tYQ5siWU_4K0DFA13-71" style="edgeStyle=orthogonalEdgeStyle;rounded=0;orthogonalLoop=1;jettySize=auto;html=1;" parent="1" source="tm8tYQ5siWU_4K0DFA13-68" target="tm8tYQ5siWU_4K0DFA13-7" edge="1">
          <mxGeometry relative="1" as="geometry" />
        </mxCell>
        <mxCell id="tm8tYQ5siWU_4K0DFA13-70" style="edgeStyle=orthogonalEdgeStyle;rounded=0;orthogonalLoop=1;jettySize=auto;html=1;" parent="1" source="tm8tYQ5siWU_4K0DFA13-69" target="tm8tYQ5siWU_4K0DFA13-7" edge="1">
          <mxGeometry relative="1" as="geometry" />
        </mxCell>
        <mxCell id="tm8tYQ5siWU_4K0DFA13-56" style="edgeStyle=orthogonalEdgeStyle;rounded=0;orthogonalLoop=1;jettySize=auto;html=1;entryX=0.5;entryY=0;entryDx=0;entryDy=0;endArrow=none;endFill=0;" parent="1" target="tm8tYQ5siWU_4K0DFA13-58" edge="1">
          <mxGeometry relative="1" as="geometry">
            <mxPoint x="40" y="290" as="sourcePoint" />
            <Array as="points">
              <mxPoint x="36" y="290" />
              <mxPoint x="36" y="290" />
            </Array>
          </mxGeometry>
        </mxCell>
        <mxCell id="tm8tYQ5siWU_4K0DFA13-57" style="edgeStyle=orthogonalEdgeStyle;rounded=0;orthogonalLoop=1;jettySize=auto;html=1;entryX=0.5;entryY=0;entryDx=0;entryDy=0;endArrow=none;endFill=0;" parent="1" source="tm8tYQ5siWU_4K0DFA13-7" target="tm8tYQ5siWU_4K0DFA13-59" edge="1">
          <mxGeometry relative="1" as="geometry">
            <mxPoint x="49.379999999999995" y="320" as="sourcePoint" />
            <Array as="points">
              <mxPoint x="60" y="290" />
              <mxPoint x="60" y="290" />
            </Array>
          </mxGeometry>
        </mxCell>
        <mxCell id="tm8tYQ5siWU_4K0DFA13-58" value="" style="ellipse;whiteSpace=wrap;html=1;" parent="1" vertex="1">
          <mxGeometry x="31" y="374" width="10" height="10" as="geometry" />
        </mxCell>
        <mxCell id="tm8tYQ5siWU_4K0DFA13-59" value="" style="ellipse;whiteSpace=wrap;html=1;" parent="1" vertex="1">
          <mxGeometry x="44.5" y="354" width="10" height="10" as="geometry" />
        </mxCell>
        <mxCell id="tm8tYQ5siWU_4K0DFA13-60" value="" style="ellipse;whiteSpace=wrap;html=1;" parent="1" vertex="1">
          <mxGeometry x="59.75" y="335" width="10" height="10" as="geometry" />
        </mxCell>
        <mxCell id="tm8tYQ5siWU_4K0DFA13-61" value="Endereço" style="text;html=1;align=center;verticalAlign=middle;resizable=0;points=[];autosize=1;strokeColor=none;fillColor=none;" parent="1" vertex="1">
          <mxGeometry x="36" y="364" width="70" height="30" as="geometry" />
        </mxCell>
        <mxCell id="tm8tYQ5siWU_4K0DFA13-62" value="Data de nascimento" style="text;html=1;align=center;verticalAlign=middle;resizable=0;points=[];autosize=1;strokeColor=none;fillColor=none;" parent="1" vertex="1">
          <mxGeometry x="61.379999999999995" y="325" width="130" height="30" as="geometry" />
        </mxCell>
        <mxCell id="tm8tYQ5siWU_4K0DFA13-63" value="Telefone" style="text;html=1;align=center;verticalAlign=middle;resizable=0;points=[];autosize=1;strokeColor=none;fillColor=none;" parent="1" vertex="1">
          <mxGeometry x="45.5" y="344" width="70" height="30" as="geometry" />
        </mxCell>
        <mxCell id="tm8tYQ5siWU_4K0DFA13-64" style="edgeStyle=orthogonalEdgeStyle;rounded=0;orthogonalLoop=1;jettySize=auto;html=1;entryX=0.5;entryY=0;entryDx=0;entryDy=0;endArrow=none;endFill=0;" parent="1" target="tm8tYQ5siWU_4K0DFA13-60" edge="1">
          <mxGeometry relative="1" as="geometry">
            <mxPoint x="65" y="290" as="sourcePoint" />
            <Array as="points">
              <mxPoint x="64" y="290" />
              <mxPoint x="65" y="290" />
            </Array>
          </mxGeometry>
        </mxCell>
        <mxCell id="tm8tYQ5siWU_4K0DFA13-27" style="edgeStyle=orthogonalEdgeStyle;rounded=0;orthogonalLoop=1;jettySize=auto;html=1;entryX=0.5;entryY=1;entryDx=0;entryDy=0;endArrow=none;endFill=0;" parent="1" target="tm8tYQ5siWU_4K0DFA13-18" edge="1">
          <mxGeometry relative="1" as="geometry">
            <mxPoint x="382" y="260" as="sourcePoint" />
            <Array as="points">
              <mxPoint x="390" y="280" />
              <mxPoint x="390" y="280" />
            </Array>
          </mxGeometry>
        </mxCell>
        <mxCell id="tm8tYQ5siWU_4K0DFA13-28" style="edgeStyle=orthogonalEdgeStyle;rounded=0;orthogonalLoop=1;jettySize=auto;html=1;entryX=0.5;entryY=1;entryDx=0;entryDy=0;endArrow=none;endFill=0;" parent="1" target="tm8tYQ5siWU_4K0DFA13-17" edge="1">
          <mxGeometry relative="1" as="geometry">
            <mxPoint x="368" y="260" as="sourcePoint" />
            <Array as="points">
              <mxPoint x="390" y="270" />
              <mxPoint x="390" y="270" />
            </Array>
          </mxGeometry>
        </mxCell>
        <mxCell id="tm8tYQ5siWU_4K0DFA13-29" style="edgeStyle=orthogonalEdgeStyle;rounded=0;orthogonalLoop=1;jettySize=auto;html=1;endArrow=none;endFill=0;" parent="1" target="tm8tYQ5siWU_4K0DFA13-11" edge="1">
          <mxGeometry relative="1" as="geometry">
            <mxPoint x="355" y="260" as="sourcePoint" />
            <Array as="points">
              <mxPoint x="355" y="230" />
              <mxPoint x="355" y="230" />
            </Array>
          </mxGeometry>
        </mxCell>
        <mxCell id="tm8tYQ5siWU_4K0DFA13-40" style="edgeStyle=orthogonalEdgeStyle;rounded=0;orthogonalLoop=1;jettySize=auto;html=1;entryX=0.5;entryY=0;entryDx=0;entryDy=0;endArrow=none;endFill=0;" parent="1" source="tm8tYQ5siWU_4K0DFA13-8" target="tm8tYQ5siWU_4K0DFA13-31" edge="1">
          <mxGeometry relative="1" as="geometry">
            <Array as="points">
              <mxPoint x="370" y="278" />
              <mxPoint x="370" y="278" />
            </Array>
          </mxGeometry>
        </mxCell>
        <mxCell id="tm8tYQ5siWU_4K0DFA13-41" style="edgeStyle=orthogonalEdgeStyle;rounded=0;orthogonalLoop=1;jettySize=auto;html=1;entryX=0.5;entryY=0;entryDx=0;entryDy=0;endArrow=none;endFill=0;" parent="1" source="tm8tYQ5siWU_4K0DFA13-8" target="tm8tYQ5siWU_4K0DFA13-32" edge="1">
          <mxGeometry relative="1" as="geometry">
            <Array as="points">
              <mxPoint x="380" y="288" />
              <mxPoint x="380" y="288" />
            </Array>
          </mxGeometry>
        </mxCell>
        <mxCell id="tm8tYQ5siWU_4K0DFA13-8" value="TURMA" style="rounded=0;whiteSpace=wrap;html=1;" parent="1" vertex="1">
          <mxGeometry x="340" y="248" width="120" height="40" as="geometry" />
        </mxCell>
        <mxCell id="tm8tYQ5siWU_4K0DFA13-87" style="edgeStyle=orthogonalEdgeStyle;rounded=0;orthogonalLoop=1;jettySize=auto;html=1;endArrow=none;endFill=0;" parent="1" source="tm8tYQ5siWU_4K0DFA13-9" target="tm8tYQ5siWU_4K0DFA13-84" edge="1">
          <mxGeometry relative="1" as="geometry" />
        </mxCell>
        <mxCell id="tm8tYQ5siWU_4K0DFA13-10" value="ATIVIDADE" style="rounded=0;whiteSpace=wrap;html=1;" parent="1" vertex="1">
          <mxGeometry x="650" y="248" width="120" height="40" as="geometry" />
        </mxCell>
        <mxCell id="tm8tYQ5siWU_4K0DFA13-11" value="" style="ellipse;whiteSpace=wrap;html=1;" parent="1" vertex="1">
          <mxGeometry x="350" y="188" width="10" height="10" as="geometry" />
        </mxCell>
        <mxCell id="tm8tYQ5siWU_4K0DFA13-17" value="" style="ellipse;whiteSpace=wrap;html=1;" parent="1" vertex="1">
          <mxGeometry x="363" y="207" width="10" height="10" as="geometry" />
        </mxCell>
        <mxCell id="tm8tYQ5siWU_4K0DFA13-18" value="" style="ellipse;whiteSpace=wrap;html=1;" parent="1" vertex="1">
          <mxGeometry x="377" y="225" width="10" height="10" as="geometry" />
        </mxCell>
        <mxCell id="tm8tYQ5siWU_4K0DFA13-22" value="Número de alunos" style="text;html=1;align=center;verticalAlign=middle;resizable=0;points=[];autosize=1;strokeColor=none;fillColor=none;" parent="1" vertex="1">
          <mxGeometry x="350" y="178" width="120" height="30" as="geometry" />
        </mxCell>
        <mxCell id="tm8tYQ5siWU_4K0DFA13-23" value="Horário da aula" style="text;html=1;align=center;verticalAlign=middle;resizable=0;points=[];autosize=1;strokeColor=none;fillColor=none;" parent="1" vertex="1">
          <mxGeometry x="360" y="196" width="110" height="30" as="geometry" />
        </mxCell>
        <mxCell id="tm8tYQ5siWU_4K0DFA13-24" value="Duração da aula" style="text;html=1;align=center;verticalAlign=middle;resizable=0;points=[];autosize=1;strokeColor=none;fillColor=none;" parent="1" vertex="1">
          <mxGeometry x="377" y="215" width="110" height="30" as="geometry" />
        </mxCell>
        <mxCell id="tm8tYQ5siWU_4K0DFA13-31" value="" style="ellipse;whiteSpace=wrap;html=1;" parent="1" vertex="1">
          <mxGeometry x="348.62" y="342" width="10" height="10" as="geometry" />
        </mxCell>
        <mxCell id="tm8tYQ5siWU_4K0DFA13-32" value="" style="ellipse;whiteSpace=wrap;html=1;" parent="1" vertex="1">
          <mxGeometry x="362.12" y="322" width="10" height="10" as="geometry" />
        </mxCell>
        <mxCell id="tm8tYQ5siWU_4K0DFA13-33" value="" style="ellipse;whiteSpace=wrap;html=1;" parent="1" vertex="1">
          <mxGeometry x="377.37" y="303" width="10" height="10" as="geometry" />
        </mxCell>
        <mxCell id="tm8tYQ5siWU_4K0DFA13-34" value="Data inicial" style="text;html=1;align=center;verticalAlign=middle;resizable=0;points=[];autosize=1;strokeColor=none;fillColor=none;" parent="1" vertex="1">
          <mxGeometry x="348.62" y="332" width="80" height="30" as="geometry" />
        </mxCell>
        <mxCell id="tm8tYQ5siWU_4K0DFA13-35" value="Tipo de atividade" style="text;html=1;align=center;verticalAlign=middle;resizable=0;points=[];autosize=1;strokeColor=none;fillColor=none;" parent="1" vertex="1">
          <mxGeometry x="380" y="292" width="110" height="30" as="geometry" />
        </mxCell>
        <mxCell id="tm8tYQ5siWU_4K0DFA13-36" value="Data final" style="text;html=1;align=center;verticalAlign=middle;resizable=0;points=[];autosize=1;strokeColor=none;fillColor=none;" parent="1" vertex="1">
          <mxGeometry x="364.12" y="313" width="70" height="30" as="geometry" />
        </mxCell>
        <mxCell id="tm8tYQ5siWU_4K0DFA13-38" style="edgeStyle=orthogonalEdgeStyle;rounded=0;orthogonalLoop=1;jettySize=auto;html=1;entryX=0.5;entryY=0;entryDx=0;entryDy=0;endArrow=none;endFill=0;" parent="1" source="tm8tYQ5siWU_4K0DFA13-8" target="tm8tYQ5siWU_4K0DFA13-33" edge="1">
          <mxGeometry relative="1" as="geometry">
            <Array as="points">
              <mxPoint x="390" y="278" />
              <mxPoint x="390" y="278" />
            </Array>
          </mxGeometry>
        </mxCell>
        <mxCell id="tm8tYQ5siWU_4K0DFA13-44" style="edgeStyle=orthogonalEdgeStyle;rounded=0;orthogonalLoop=1;jettySize=auto;html=1;endArrow=none;endFill=0;" parent="1" source="tm8tYQ5siWU_4K0DFA13-42" target="tm8tYQ5siWU_4K0DFA13-7" edge="1">
          <mxGeometry relative="1" as="geometry" />
        </mxCell>
        <mxCell id="tm8tYQ5siWU_4K0DFA13-83" style="edgeStyle=orthogonalEdgeStyle;rounded=0;orthogonalLoop=1;jettySize=auto;html=1;entryX=0;entryY=0.75;entryDx=0;entryDy=0;endArrow=none;endFill=0;" parent="1" source="tm8tYQ5siWU_4K0DFA13-42" target="tm8tYQ5siWU_4K0DFA13-8" edge="1">
          <mxGeometry relative="1" as="geometry" />
        </mxCell>
        <mxCell id="tm8tYQ5siWU_4K0DFA13-42" value="PARTICIPA" style="rhombus;whiteSpace=wrap;html=1;" parent="1" vertex="1">
          <mxGeometry x="191.38" y="253" width="80" height="50" as="geometry" />
        </mxCell>
        <mxCell id="tm8tYQ5siWU_4K0DFA13-46" value="(1,n)" style="text;html=1;align=center;verticalAlign=middle;resizable=0;points=[];autosize=1;strokeColor=none;fillColor=none;" parent="1" vertex="1">
          <mxGeometry x="122" y="273" width="50" height="30" as="geometry" />
        </mxCell>
        <mxCell id="jcQm_LxHZzi_HvaLnjeA-22" style="edgeStyle=orthogonalEdgeStyle;rounded=0;orthogonalLoop=1;jettySize=auto;html=1;" edge="1" parent="1" source="tm8tYQ5siWU_4K0DFA13-50" target="tm8tYQ5siWU_4K0DFA13-7">
          <mxGeometry relative="1" as="geometry" />
        </mxCell>
        <mxCell id="tm8tYQ5siWU_4K0DFA13-50" value="" style="ellipse;whiteSpace=wrap;html=1;" parent="1" vertex="1">
          <mxGeometry x="-10" y="261" width="10" height="10" as="geometry" />
        </mxCell>
        <mxCell id="jcQm_LxHZzi_HvaLnjeA-23" style="edgeStyle=orthogonalEdgeStyle;rounded=0;orthogonalLoop=1;jettySize=auto;html=1;" edge="1" parent="1" source="tm8tYQ5siWU_4K0DFA13-51" target="tm8tYQ5siWU_4K0DFA13-7">
          <mxGeometry relative="1" as="geometry" />
        </mxCell>
        <mxCell id="tm8tYQ5siWU_4K0DFA13-51" value="" style="ellipse;whiteSpace=wrap;html=1;" parent="1" vertex="1">
          <mxGeometry x="-10" y="283" width="10" height="10" as="geometry" />
        </mxCell>
        <mxCell id="tm8tYQ5siWU_4K0DFA13-53" value="Código de matrícula" style="text;html=1;align=center;verticalAlign=middle;resizable=0;points=[];autosize=1;strokeColor=none;fillColor=none;" parent="1" vertex="1">
          <mxGeometry x="-133" y="249" width="130" height="30" as="geometry" />
        </mxCell>
        <mxCell id="tm8tYQ5siWU_4K0DFA13-54" value="Data de matrícula" style="text;html=1;align=center;verticalAlign=middle;resizable=0;points=[];autosize=1;strokeColor=none;fillColor=none;" parent="1" vertex="1">
          <mxGeometry x="-121" y="271" width="120" height="30" as="geometry" />
        </mxCell>
        <mxCell id="tm8tYQ5siWU_4K0DFA13-66" style="edgeStyle=orthogonalEdgeStyle;rounded=0;orthogonalLoop=1;jettySize=auto;html=1;entryX=0.5;entryY=0;entryDx=0;entryDy=0;endArrow=none;endFill=0;" parent="1" target="tm8tYQ5siWU_4K0DFA13-65" edge="1">
          <mxGeometry relative="1" as="geometry">
            <mxPoint x="21" y="324" as="sourcePoint" />
            <Array as="points">
              <mxPoint x="21" y="290" />
              <mxPoint x="21" y="290" />
            </Array>
          </mxGeometry>
        </mxCell>
        <mxCell id="tm8tYQ5siWU_4K0DFA13-7" value="ALUNO" style="rounded=0;whiteSpace=wrap;html=1;" parent="1" vertex="1">
          <mxGeometry x="10" y="258" width="120" height="40" as="geometry" />
        </mxCell>
        <mxCell id="tm8tYQ5siWU_4K0DFA13-65" value="" style="ellipse;whiteSpace=wrap;html=1;" parent="1" vertex="1">
          <mxGeometry x="16" y="394" width="10" height="10" as="geometry" />
        </mxCell>
        <mxCell id="tm8tYQ5siWU_4K0DFA13-67" value="Nome" style="text;html=1;align=center;verticalAlign=middle;resizable=0;points=[];autosize=1;strokeColor=none;fillColor=none;" parent="1" vertex="1">
          <mxGeometry x="15" y="384" width="60" height="30" as="geometry" />
        </mxCell>
        <mxCell id="tm8tYQ5siWU_4K0DFA13-68" value="" style="ellipse;whiteSpace=wrap;html=1;" parent="1" vertex="1">
          <mxGeometry x="73" y="316" width="10" height="10" as="geometry" />
        </mxCell>
        <mxCell id="tm8tYQ5siWU_4K0DFA13-69" value="" style="ellipse;whiteSpace=wrap;html=1;" parent="1" vertex="1">
          <mxGeometry x="83" y="300" width="10" height="10" as="geometry" />
        </mxCell>
        <mxCell id="tm8tYQ5siWU_4K0DFA13-72" value="Altura" style="text;html=1;align=center;verticalAlign=middle;resizable=0;points=[];autosize=1;strokeColor=none;fillColor=none;" parent="1" vertex="1">
          <mxGeometry x="77" y="306" width="50" height="30" as="geometry" />
        </mxCell>
        <mxCell id="tm8tYQ5siWU_4K0DFA13-73" value="Peso" style="text;html=1;align=center;verticalAlign=middle;resizable=0;points=[];autosize=1;strokeColor=none;fillColor=none;" parent="1" vertex="1">
          <mxGeometry x="83" y="290" width="50" height="30" as="geometry" />
        </mxCell>
        <mxCell id="tm8tYQ5siWU_4K0DFA13-76" style="edgeStyle=orthogonalEdgeStyle;rounded=0;orthogonalLoop=1;jettySize=auto;html=1;endArrow=none;endFill=0;" parent="1" source="tm8tYQ5siWU_4K0DFA13-75" target="tm8tYQ5siWU_4K0DFA13-10" edge="1">
          <mxGeometry relative="1" as="geometry" />
        </mxCell>
        <mxCell id="tm8tYQ5siWU_4K0DFA13-77" style="edgeStyle=orthogonalEdgeStyle;rounded=0;orthogonalLoop=1;jettySize=auto;html=1;endArrow=none;endFill=0;" parent="1" source="tm8tYQ5siWU_4K0DFA13-75" target="tm8tYQ5siWU_4K0DFA13-8" edge="1">
          <mxGeometry relative="1" as="geometry" />
        </mxCell>
        <mxCell id="tm8tYQ5siWU_4K0DFA13-75" value="REALIZA" style="rhombus;whiteSpace=wrap;html=1;" parent="1" vertex="1">
          <mxGeometry x="510" y="243" width="80" height="50" as="geometry" />
        </mxCell>
        <mxCell id="tm8tYQ5siWU_4K0DFA13-78" value="1" style="text;html=1;align=center;verticalAlign=middle;resizable=0;points=[];autosize=1;strokeColor=none;fillColor=none;" parent="1" vertex="1">
          <mxGeometry x="610" y="244" width="30" height="30" as="geometry" />
        </mxCell>
        <mxCell id="tm8tYQ5siWU_4K0DFA13-79" value="n" style="text;html=1;align=center;verticalAlign=middle;resizable=0;points=[];autosize=1;strokeColor=none;fillColor=none;" parent="1" vertex="1">
          <mxGeometry x="465" y="242" width="30" height="30" as="geometry" />
        </mxCell>
        <mxCell id="tm8tYQ5siWU_4K0DFA13-86" style="edgeStyle=orthogonalEdgeStyle;rounded=0;orthogonalLoop=1;jettySize=auto;html=1;entryX=0;entryY=0.25;entryDx=0;entryDy=0;" parent="1" source="tm8tYQ5siWU_4K0DFA13-84" target="tm8tYQ5siWU_4K0DFA13-8" edge="1">
          <mxGeometry relative="1" as="geometry">
            <Array as="points">
              <mxPoint x="290" y="258" />
            </Array>
          </mxGeometry>
        </mxCell>
        <mxCell id="tm8tYQ5siWU_4K0DFA13-84" value="ORIENTA" style="rhombus;whiteSpace=wrap;html=1;" parent="1" vertex="1">
          <mxGeometry x="250" y="128" width="80" height="50" as="geometry" />
        </mxCell>
        <mxCell id="tm8tYQ5siWU_4K0DFA13-88" value="n" style="text;html=1;align=center;verticalAlign=middle;resizable=0;points=[];autosize=1;strokeColor=none;fillColor=none;" parent="1" vertex="1">
          <mxGeometry x="295" y="273" width="30" height="30" as="geometry" />
        </mxCell>
        <mxCell id="jcQm_LxHZzi_HvaLnjeA-1" style="edgeStyle=orthogonalEdgeStyle;rounded=0;orthogonalLoop=1;jettySize=auto;html=1;entryX=0.5;entryY=1;entryDx=0;entryDy=0;endArrow=none;endFill=0;" edge="1" parent="1" target="jcQm_LxHZzi_HvaLnjeA-6">
          <mxGeometry relative="1" as="geometry">
            <mxPoint x="268" y="42" as="sourcePoint" />
            <Array as="points">
              <mxPoint x="276" y="62" />
              <mxPoint x="276" y="62" />
            </Array>
          </mxGeometry>
        </mxCell>
        <mxCell id="jcQm_LxHZzi_HvaLnjeA-2" style="edgeStyle=orthogonalEdgeStyle;rounded=0;orthogonalLoop=1;jettySize=auto;html=1;entryX=0.5;entryY=1;entryDx=0;entryDy=0;endArrow=none;endFill=0;" edge="1" parent="1" target="jcQm_LxHZzi_HvaLnjeA-5">
          <mxGeometry relative="1" as="geometry">
            <mxPoint x="254" y="42" as="sourcePoint" />
            <Array as="points">
              <mxPoint x="276" y="52" />
              <mxPoint x="276" y="52" />
            </Array>
          </mxGeometry>
        </mxCell>
        <mxCell id="jcQm_LxHZzi_HvaLnjeA-3" style="edgeStyle=orthogonalEdgeStyle;rounded=0;orthogonalLoop=1;jettySize=auto;html=1;endArrow=none;endFill=0;" edge="1" parent="1" target="jcQm_LxHZzi_HvaLnjeA-4">
          <mxGeometry relative="1" as="geometry">
            <mxPoint x="241" y="42" as="sourcePoint" />
            <Array as="points">
              <mxPoint x="241" y="12" />
              <mxPoint x="241" y="12" />
            </Array>
          </mxGeometry>
        </mxCell>
        <mxCell id="jcQm_LxHZzi_HvaLnjeA-4" value="" style="ellipse;whiteSpace=wrap;html=1;" vertex="1" parent="1">
          <mxGeometry x="236" y="-30" width="10" height="10" as="geometry" />
        </mxCell>
        <mxCell id="jcQm_LxHZzi_HvaLnjeA-5" value="" style="ellipse;whiteSpace=wrap;html=1;" vertex="1" parent="1">
          <mxGeometry x="249" y="-11" width="10" height="10" as="geometry" />
        </mxCell>
        <mxCell id="jcQm_LxHZzi_HvaLnjeA-6" value="" style="ellipse;whiteSpace=wrap;html=1;" vertex="1" parent="1">
          <mxGeometry x="263" y="7" width="10" height="10" as="geometry" />
        </mxCell>
        <mxCell id="jcQm_LxHZzi_HvaLnjeA-7" value="RG" style="text;html=1;align=center;verticalAlign=middle;resizable=0;points=[];autosize=1;strokeColor=none;fillColor=none;" vertex="1" parent="1">
          <mxGeometry x="236" y="-40" width="40" height="30" as="geometry" />
        </mxCell>
        <mxCell id="jcQm_LxHZzi_HvaLnjeA-8" value="Nome" style="text;html=1;align=center;verticalAlign=middle;resizable=0;points=[];autosize=1;strokeColor=none;fillColor=none;" vertex="1" parent="1">
          <mxGeometry x="246" y="-21" width="60" height="30" as="geometry" />
        </mxCell>
        <mxCell id="jcQm_LxHZzi_HvaLnjeA-9" value="Data de nascimento" style="text;html=1;align=center;verticalAlign=middle;resizable=0;points=[];autosize=1;strokeColor=none;fillColor=none;" vertex="1" parent="1">
          <mxGeometry x="263" y="-3" width="130" height="30" as="geometry" />
        </mxCell>
        <mxCell id="tm8tYQ5siWU_4K0DFA13-9" value="INSTRUTOR" style="rounded=0;whiteSpace=wrap;html=1;" parent="1" vertex="1">
          <mxGeometry x="230" y="30" width="120" height="40" as="geometry" />
        </mxCell>
        <mxCell id="jcQm_LxHZzi_HvaLnjeA-11" style="edgeStyle=orthogonalEdgeStyle;rounded=0;orthogonalLoop=1;jettySize=auto;html=1;endArrow=none;endFill=0;" edge="1" parent="1" source="jcQm_LxHZzi_HvaLnjeA-10" target="tm8tYQ5siWU_4K0DFA13-9">
          <mxGeometry relative="1" as="geometry">
            <Array as="points">
              <mxPoint x="350" y="40" />
              <mxPoint x="350" y="40" />
            </Array>
          </mxGeometry>
        </mxCell>
        <mxCell id="jcQm_LxHZzi_HvaLnjeA-13" value="" style="edgeStyle=orthogonalEdgeStyle;rounded=0;orthogonalLoop=1;jettySize=auto;html=1;endArrow=none;endFill=0;" edge="1" parent="1" source="jcQm_LxHZzi_HvaLnjeA-10" target="tm8tYQ5siWU_4K0DFA13-9">
          <mxGeometry relative="1" as="geometry">
            <Array as="points">
              <mxPoint x="350" y="40" />
              <mxPoint x="350" y="40" />
            </Array>
          </mxGeometry>
        </mxCell>
        <mxCell id="jcQm_LxHZzi_HvaLnjeA-10" value="" style="ellipse;whiteSpace=wrap;html=1;" vertex="1" parent="1">
          <mxGeometry x="362.12" y="30" width="10" height="10" as="geometry" />
        </mxCell>
        <mxCell id="jcQm_LxHZzi_HvaLnjeA-18" style="edgeStyle=orthogonalEdgeStyle;rounded=0;orthogonalLoop=1;jettySize=auto;html=1;endArrow=none;endFill=0;" edge="1" parent="1">
          <mxGeometry relative="1" as="geometry">
            <mxPoint x="362.07" y="49.95" as="sourcePoint" />
            <mxPoint x="349.95" y="49.95" as="targetPoint" />
          </mxGeometry>
        </mxCell>
        <mxCell id="jcQm_LxHZzi_HvaLnjeA-16" value="" style="ellipse;whiteSpace=wrap;html=1;" vertex="1" parent="1">
          <mxGeometry x="362.12" y="45" width="10" height="10" as="geometry" />
        </mxCell>
        <mxCell id="jcQm_LxHZzi_HvaLnjeA-20" value="Titulação" style="text;html=1;align=center;verticalAlign=middle;resizable=0;points=[];autosize=1;strokeColor=none;fillColor=none;" vertex="1" parent="1">
          <mxGeometry x="362.12" y="20" width="70" height="30" as="geometry" />
        </mxCell>
        <mxCell id="jcQm_LxHZzi_HvaLnjeA-21" value="Telefone (1,n)" style="text;html=1;align=center;verticalAlign=middle;resizable=0;points=[];autosize=1;strokeColor=none;fillColor=none;" vertex="1" parent="1">
          <mxGeometry x="360" y="35" width="100" height="30" as="geometry" />
        </mxCell>
        <mxCell id="jcQm_LxHZzi_HvaLnjeA-25" style="edgeStyle=orthogonalEdgeStyle;rounded=0;orthogonalLoop=1;jettySize=auto;html=1;entryX=0.805;entryY=0.616;entryDx=0;entryDy=0;entryPerimeter=0;endArrow=none;endFill=0;" edge="1" parent="1" source="tm8tYQ5siWU_4K0DFA13-7" target="jcQm_LxHZzi_HvaLnjeA-24">
          <mxGeometry relative="1" as="geometry">
            <Array as="points">
              <mxPoint x="100" y="250" />
              <mxPoint x="100" y="250" />
            </Array>
          </mxGeometry>
        </mxCell>
        <mxCell id="jcQm_LxHZzi_HvaLnjeA-26" style="edgeStyle=orthogonalEdgeStyle;rounded=0;orthogonalLoop=1;jettySize=auto;html=1;entryX=0.234;entryY=0.671;entryDx=0;entryDy=0;entryPerimeter=0;endArrow=none;endFill=0;" edge="1" parent="1" source="tm8tYQ5siWU_4K0DFA13-7" target="jcQm_LxHZzi_HvaLnjeA-24">
          <mxGeometry relative="1" as="geometry">
            <Array as="points">
              <mxPoint x="46" y="238" />
              <mxPoint x="46" y="238" />
            </Array>
          </mxGeometry>
        </mxCell>
        <mxCell id="jcQm_LxHZzi_HvaLnjeA-24" value="MONITORA" style="rhombus;whiteSpace=wrap;html=1;" vertex="1" parent="1">
          <mxGeometry x="23.38" y="168.89" width="95.25" height="39.11" as="geometry" />
        </mxCell>
        <mxCell id="jcQm_LxHZzi_HvaLnjeA-27" value="monitora" style="text;html=1;align=center;verticalAlign=middle;resizable=0;points=[];autosize=1;strokeColor=none;fillColor=none;" vertex="1" parent="1">
          <mxGeometry x="93" y="212" width="70" height="30" as="geometry" />
        </mxCell>
        <mxCell id="jcQm_LxHZzi_HvaLnjeA-28" value="monitorado" style="text;html=1;align=center;verticalAlign=middle;resizable=0;points=[];autosize=1;strokeColor=none;fillColor=none;" vertex="1" parent="1">
          <mxGeometry x="-30.5" y="214" width="80" height="30" as="geometry" />
        </mxCell>
        <mxCell id="jcQm_LxHZzi_HvaLnjeA-29" value="(1,n)" style="text;html=1;align=center;verticalAlign=middle;resizable=0;points=[];autosize=1;strokeColor=none;fillColor=none;" vertex="1" parent="1">
          <mxGeometry x="5" y="188" width="50" height="30" as="geometry" />
        </mxCell>
        <mxCell id="jcQm_LxHZzi_HvaLnjeA-30" value="(1,1)" style="text;html=1;align=center;verticalAlign=middle;resizable=0;points=[];autosize=1;strokeColor=none;fillColor=none;" vertex="1" parent="1">
          <mxGeometry x="93" y="188" width="50" height="30" as="geometry" />
        </mxCell>
        <mxCell id="jcQm_LxHZzi_HvaLnjeA-31" value="(1,n)" style="text;html=1;align=center;verticalAlign=middle;resizable=0;points=[];autosize=1;strokeColor=none;fillColor=none;" vertex="1" parent="1">
          <mxGeometry x="285" y="226" width="50" height="30" as="geometry" />
        </mxCell>
        <mxCell id="jcQm_LxHZzi_HvaLnjeA-32" value="1" style="text;html=1;align=center;verticalAlign=middle;resizable=0;points=[];autosize=1;strokeColor=none;fillColor=none;" vertex="1" parent="1">
          <mxGeometry x="287" y="71" width="30" height="30" as="geometry" />
        </mxCell>
      </root>
    </mxGraphModel>
  </diagram>
</mxfile>
